<svg width="26" height="26" viewBox="0 0 26 26" fill="none" xmlns="http://www.w3.org/2000/svg">
<g clip-path="url(#clip0_338_6)">
<path d="M13.3115 1.34488C6.61919 1.34488 1.20215 6.76084 1.20215 13.4543C1.20215 20.1466 6.61812 25.5636 13.3115 25.5636C15.6628 25.5636 17.9669 24.8732 19.9232 23.5996C20.5094 23.218 20.6374 22.4137 20.1943 21.8725L19.6974 21.2654C19.3229 20.8078 18.6633 20.6957 18.1655 21.0149C16.7256 21.9385 15.0358 22.4386 13.3115 22.4386C8.35752 22.4386 4.32715 18.4083 4.32715 13.4543C4.32715 8.50025 8.35752 4.46988 13.3115 4.46988C18.2011 4.46988 22.2959 7.2833 22.2959 12.2824C22.2959 14.1762 21.266 16.176 19.4556 16.3689C18.6084 16.3468 18.6299 15.7412 18.7976 14.9029L19.9417 8.98936C20.0817 8.26626 19.5277 7.59488 18.7913 7.59488H16.5949C16.4328 7.59487 16.2763 7.65457 16.1553 7.76257C16.0343 7.87058 15.9574 8.01934 15.9391 8.18047L15.9386 8.18496C15.2209 7.31089 13.9636 7.12173 13.0103 7.12173C9.3687 7.12173 6.28027 10.1605 6.28027 14.5172C6.28027 17.7059 8.07642 19.6867 10.9678 19.6867C12.2854 19.6867 13.769 18.9231 14.6294 17.8149C15.0944 19.4802 16.6125 19.4801 18.0821 19.4801C23.3999 19.4801 25.4209 15.9834 25.4209 12.2824C25.4209 5.62481 20.0509 1.34488 13.3115 1.34488ZM12.2529 16.2096C11.1666 16.2096 10.4917 15.4468 10.4917 14.2188C10.4917 12.0219 11.9946 10.6676 13.3545 10.6676C14.443 10.6676 15.0928 11.4118 15.0928 12.6584C15.0928 14.8586 13.4388 16.2096 12.2529 16.2096Z" fill="black"/>
</g>
<defs>
<clipPath id="clip0_338_6">
<rect width="25" height="25" fill="white" transform="translate(0.811523 0.95425)"/>
</clipPath>
</defs>
</svg>
