<svg width="32" height="32" viewBox="0 0 32 32" fill="none" xmlns="http://www.w3.org/2000/svg">
<path d="M15.8571 20C16.918 20 17.9354 19.5786 18.6856 18.8284C19.4357 18.0783 19.8571 17.0609 19.8571 16C19.8571 15.8829 19.8518 15.7668 19.8418 15.6521L15.5093 19.9846C15.6239 19.9946 15.7396 20 15.8571 20ZM29.0971 3.62714L27.5714 2.10286C27.5179 2.04932 27.4452 2.01924 27.3695 2.01924C27.2937 2.01924 27.2211 2.04932 27.1675 2.10286L23.2632 6.00821C21.1094 4.9075 18.6883 4.35714 16 4.35714C9.13571 4.35714 4.01429 7.93214 0.635714 15.0821C0.499911 15.3697 0.429481 15.6838 0.429481 16.0018C0.429481 16.3198 0.499911 16.6339 0.635714 16.9214C1.98571 19.765 3.61131 22.0442 5.5125 23.7589L1.73429 27.5357C1.68074 27.5893 1.65067 27.6619 1.65067 27.7377C1.65067 27.8134 1.68074 27.8861 1.73429 27.9396L3.25893 29.4643C3.3125 29.5178 3.38515 29.5479 3.46089 29.5479C3.53664 29.5479 3.60928 29.5178 3.66286 29.4643L29.0971 4.03143C29.1237 4.00489 29.1448 3.97338 29.1592 3.9387C29.1735 3.90401 29.1809 3.86683 29.1809 3.82929C29.1809 3.79174 29.1735 3.75456 29.1592 3.71987C29.1448 3.68519 29.1237 3.65368 29.0971 3.62714ZM9.57143 16C9.57133 14.9143 9.85244 13.8471 10.3874 12.9023C10.9223 11.9576 11.6929 11.1675 12.6239 10.609C13.555 10.0506 14.6148 9.74279 15.7001 9.71568C16.7855 9.68856 17.8594 9.94302 18.8171 10.4543L17.0807 12.1907C16.3804 11.9665 15.6319 11.9395 14.9173 12.1127C14.2027 12.2858 13.5496 12.6525 13.0296 13.1725C12.5097 13.6924 12.143 14.3455 11.9698 15.0601C11.7966 15.7748 11.8236 16.5233 12.0479 17.2236L10.3114 18.96C9.82414 18.0496 9.56991 17.0326 9.57143 16Z" fill="white"/>
<path d="M31.3643 15.0786C30.1071 12.431 28.6108 10.272 26.8754 8.60179L21.7275 13.75C22.1614 14.8843 22.2576 16.1201 22.0044 17.3079C21.7512 18.4957 21.1595 19.5848 20.3007 20.4436C19.4419 21.3024 18.3528 21.8941 17.165 22.1473C15.9772 22.4005 14.7415 22.3043 13.6071 21.8704L9.24071 26.2368C11.2664 27.1742 13.5195 27.6429 16 27.6429C22.8643 27.6429 27.9857 24.0679 31.3643 16.9179C31.5001 16.6303 31.5706 16.3162 31.5706 15.9982C31.5706 15.6802 31.5001 15.3661 31.3643 15.0786Z" fill="white"/>
</svg>
