<svg width="25" height="25" viewBox="0 0 25 25" fill="none" xmlns="http://www.w3.org/2000/svg">
<path d="M17.3835 9.17911V11.1586H8.32194C8.20408 11.1586 8.10765 11.255 8.10765 11.3729V12.98C8.10765 13.0979 8.20408 13.1943 8.32194 13.1943H17.3835V15.1791C17.3835 15.3586 17.5898 15.4577 17.7291 15.3479L21.5273 12.3479C21.5529 12.3278 21.5736 12.3022 21.5879 12.273C21.6021 12.2437 21.6095 12.2116 21.6095 12.1791C21.6095 12.1466 21.6021 12.1145 21.5879 12.0852C21.5736 12.056 21.5529 12.0304 21.5273 12.0104L17.7318 9.01036C17.5898 8.90053 17.3835 8.99964 17.3835 9.17911ZM9.12551 21.9827V20.3755C9.12551 20.2577 9.02908 20.1612 8.91122 20.1612H4.78622V4.19696H8.91122C9.02908 4.19696 9.12551 4.10053 9.12551 3.98268V2.37553C9.12551 2.25768 9.02908 2.16125 8.91122 2.16125H3.60765C3.13354 2.16125 2.75051 2.54428 2.75051 3.01839V21.3398C2.75051 21.8139 3.13354 22.197 3.60765 22.197H8.91122C9.02908 22.197 9.12551 22.1005 9.12551 21.9827Z" fill="white"/>
</svg>
