<svg version="1.1" id="Layer_1" xmlns="http://www.w3.org/2000/svg" xmlns:xlink="http://www.w3.org/1999/xlink" x="0px" y="0px"
	 width="100%" viewBox="0 0 512 512" enable-background="new 0 0 512 512" xml:space="preserve">
<path fill="#FFFFFF" opacity="1.000000" stroke="none" 
	d="
M1.000001,466.000000 
	C1.000000,311.045959 1.000000,156.091904 1.000000,1.068930 
	C171.570084,1.068930 342.140198,1.068930 513.000000,1.068930 
	C513.000000,156.357285 513.000000,311.714752 512.628174,467.416260 
	C511.824982,466.042236 511.728638,464.142426 510.910339,462.634369 
	C503.179138,448.386932 496.217651,433.610291 487.250458,420.177032 
	C478.610352,407.233795 468.241241,395.362213 457.896179,383.670685 
	C451.721069,376.691864 444.246948,370.830688 437.151947,364.704254 
	C422.669342,352.198730 406.694366,341.834320 389.756042,333.027618 
	C365.985596,320.668671 341.056946,311.408691 314.560272,306.903992 
	C301.125092,304.619873 287.639282,302.109802 274.077911,301.244263 
	C261.404877,300.435394 248.560501,301.144196 235.867447,302.146454 
	C223.417282,303.129517 211.008240,304.997742 198.678406,307.059204 
	C177.673767,310.570953 157.586166,317.370667 138.238785,326.082733 
	C118.506889,334.968018 99.977180,345.925751 82.886375,359.422516 
	C67.149796,371.849884 52.919724,385.585388 40.249592,401.122772 
	C25.878819,418.745605 14.240394,437.933960 5.001351,458.654510 
	C3.869466,461.193024 2.343396,463.555786 1.000001,466.000000 
M475.000000,74.445129 
	C474.633270,69.540573 474.928680,64.475906 473.787872,59.758541 
	C468.142761,36.414810 455.000305,19.136768 432.342224,9.727389 
	C417.632263,3.618700 402.536499,2.921387 387.442291,7.120209 
	C368.536285,12.379384 354.054077,23.853418 345.053986,41.401295 
	C337.705414,55.729145 335.651184,70.773537 338.786804,86.974457 
	C344.565277,116.830650 369.082642,138.669418 398.833191,141.792694 
	C416.374817,143.634247 432.901581,139.518723 447.336884,128.332458 
	C464.750610,114.838173 473.575195,97.114746 475.000000,74.445129 
M108.359451,140.999908 
	C114.173767,139.218369 120.304474,138.103027 125.739052,135.521927 
	C138.576874,129.424744 148.657776,120.097694 155.872574,107.677666 
	C164.882706,92.167015 167.337616,75.448647 163.494690,58.308331 
	C159.874817,42.162910 151.501648,28.502151 137.877899,18.256094 
	C121.928154,6.260703 103.855392,2.517845 84.792488,5.361032 
	C69.058052,7.707787 55.531342,15.394512 44.712826,27.658766 
	C30.344576,43.947121 25.413000,63.092541 28.247784,83.932137 
	C30.711414,102.043266 39.717617,117.136711 54.690914,128.170120 
	C70.468399,139.796112 88.004128,144.415070 108.359451,140.999908 
z"/>
<path fill="#FFFFFF" opacity="1.000000" stroke="none" 
	d="
M513.000000,485.000000 
	C513.000000,494.326141 513.000000,503.652252 513.000000,512.958618 
	C342.333344,512.958618 171.666656,512.958618 1.000000,512.958618 
	C1.000000,504.257294 1.000000,495.597321 1.357048,486.560547 
	C1.938377,486.428497 2.280776,486.636475 2.369997,486.923218 
	C6.764799,501.048645 20.779230,510.911896 38.185925,509.039612 
	C47.812389,508.004150 55.732731,503.855652 60.874195,495.806427 
	C64.902954,489.499115 67.240784,482.122833 71.169014,475.737732 
	C77.670288,465.170288 84.644829,454.876068 91.787453,444.725342 
	C102.110016,430.055359 115.618576,418.519592 129.979050,408.078522 
	C149.355591,393.990479 170.761383,383.780884 193.758469,377.074524 
	C211.732986,371.832886 230.140396,368.538452 248.847229,368.169128 
	C260.827850,367.932587 272.936920,368.610474 284.812866,370.194611 
	C297.398071,371.873352 309.981537,374.378998 322.199554,377.822723 
	C345.783813,384.469971 367.256012,395.829010 386.810822,410.490417 
	C400.970642,421.106873 413.384888,433.611206 424.377441,447.623322 
	C434.412109,460.414368 442.134766,474.412720 449.034698,489.001831 
	C452.732483,496.820374 458.408356,502.502838 466.527283,506.234222 
	C480.461884,512.638489 497.524841,507.790070 505.721039,496.695831 
	C508.441010,493.014130 510.589935,488.910614 513.000000,485.000000 
z"/>
<path fill="#000000" opacity="1.000000" stroke="none" 
	d="
M513.000000,484.532379 
	C510.589935,488.910614 508.441010,493.014130 505.721039,496.695831 
	C497.524841,507.790070 480.461884,512.638489 466.527283,506.234222 
	C458.408356,502.502838 452.732483,496.820374 449.034698,489.001831 
	C442.134766,474.412720 434.412109,460.414368 424.377441,447.623322 
	C413.384888,433.611206 400.970642,421.106873 386.810822,410.490417 
	C367.256012,395.829010 345.783813,384.469971 322.199554,377.822723 
	C309.981537,374.378998 297.398071,371.873352 284.812866,370.194611 
	C272.936920,368.610474 260.827850,367.932587 248.847229,368.169128 
	C230.140396,368.538452 211.732986,371.832886 193.758469,377.074524 
	C170.761383,383.780884 149.355591,393.990479 129.979050,408.078522 
	C115.618576,418.519592 102.110016,430.055359 91.787453,444.725342 
	C84.644829,454.876068 77.670288,465.170288 71.169014,475.737732 
	C67.240784,482.122833 64.902954,489.499115 60.874195,495.806427 
	C55.732731,503.855652 47.812389,508.004150 38.185925,509.039612 
	C20.779230,510.911896 6.764799,501.048645 2.369997,486.923218 
	C2.280776,486.636475 1.938377,486.428497 1.357048,486.091919 
	C1.000000,479.645599 1.000000,473.291199 1.000001,466.468384 
	C2.343396,463.555786 3.869466,461.193024 5.001351,458.654510 
	C14.240394,437.933960 25.878819,418.745605 40.249592,401.122772 
	C52.919724,385.585388 67.149796,371.849884 82.886375,359.422516 
	C99.977180,345.925751 118.506889,334.968018 138.238785,326.082733 
	C157.586166,317.370667 177.673767,310.570953 198.678406,307.059204 
	C211.008240,304.997742 223.417282,303.129517 235.867447,302.146454 
	C248.560501,301.144196 261.404877,300.435394 274.077911,301.244263 
	C287.639282,302.109802 301.125092,304.619873 314.560272,306.903992 
	C341.056946,311.408691 365.985596,320.668671 389.756042,333.027618 
	C406.694366,341.834320 422.669342,352.198730 437.151947,364.704254 
	C444.246948,370.830688 451.721069,376.691864 457.896179,383.670685 
	C468.241241,395.362213 478.610352,407.233795 487.250458,420.177032 
	C496.217651,433.610291 503.179138,448.386932 510.910339,462.634369 
	C511.728638,464.142426 511.824982,466.042236 512.628174,467.880127 
	C513.000000,473.354919 513.000000,478.709869 513.000000,484.532379 
z"/>
<path fill="#000000" opacity="1.000000" stroke="none" 
	d="
M475.000000,74.920280 
	C473.575195,97.114746 464.750610,114.838173 447.336884,128.332458 
	C432.901581,139.518723 416.374817,143.634247 398.833191,141.792694 
	C369.082642,138.669418 344.565277,116.830650 338.786804,86.974457 
	C335.651184,70.773537 337.705414,55.729145 345.053986,41.401295 
	C354.054077,23.853418 368.536285,12.379384 387.442291,7.120209 
	C402.536499,2.921387 417.632263,3.618700 432.342224,9.727389 
	C455.000305,19.136768 468.142761,36.414810 473.787872,59.758541 
	C474.928680,64.475906 474.633270,69.540573 475.000000,74.920280 
z"/>
<path fill="#000000" opacity="1.000000" stroke="none" 
	d="
M107.912445,141.000092 
	C88.004128,144.415070 70.468399,139.796112 54.690914,128.170120 
	C39.717617,117.136711 30.711414,102.043266 28.247784,83.932137 
	C25.413000,63.092541 30.344576,43.947121 44.712826,27.658766 
	C55.531342,15.394512 69.058052,7.707787 84.792488,5.361032 
	C103.855392,2.517845 121.928154,6.260703 137.877899,18.256094 
	C151.501648,28.502151 159.874817,42.162910 163.494690,58.308331 
	C167.337616,75.448647 164.882706,92.167015 155.872574,107.677666 
	C148.657776,120.097694 138.576874,129.424744 125.739052,135.521927 
	C120.304474,138.103027 114.173767,139.218369 107.912445,141.000092 
z"/>
</svg>