<svg width="32" height="32" viewBox="0 0 32 32" fill="none" xmlns="http://www.w3.org/2000/svg">
<path d="M24.5715 21.4286C23.5536 21.4286 22.6143 21.7857 21.8786 22.3821L14.4786 17.0286C14.6025 16.3485 14.6025 15.6515 14.4786 14.9714L21.8786 9.61786C22.6143 10.2143 23.5536 10.5714 24.5715 10.5714C26.9357 10.5714 28.8572 8.65 28.8572 6.28571C28.8572 3.92143 26.9357 2 24.5715 2C22.2072 2 20.2857 3.92143 20.2857 6.28571C20.2857 6.7 20.3429 7.09643 20.4536 7.475L13.425 12.5643C12.3822 11.1821 10.725 10.2857 8.85717 10.2857C5.70003 10.2857 3.14288 12.8429 3.14288 16C3.14288 19.1571 5.70003 21.7143 8.85717 21.7143C10.725 21.7143 12.3822 20.8179 13.425 19.4357L20.4536 24.525C20.3429 24.9036 20.2857 25.3036 20.2857 25.7143C20.2857 28.0786 22.2072 30 24.5715 30C26.9357 30 28.8572 28.0786 28.8572 25.7143C28.8572 23.35 26.9357 21.4286 24.5715 21.4286ZM24.5715 4.42857C25.5965 4.42857 26.4286 5.26071 26.4286 6.28571C26.4286 7.31071 25.5965 8.14286 24.5715 8.14286C23.5465 8.14286 22.7143 7.31071 22.7143 6.28571C22.7143 5.26071 23.5465 4.42857 24.5715 4.42857ZM8.85717 19.1429C7.12503 19.1429 5.71431 17.7321 5.71431 16C5.71431 14.2679 7.12503 12.8571 8.85717 12.8571C10.5893 12.8571 12 14.2679 12 16C12 17.7321 10.5893 19.1429 8.85717 19.1429ZM24.5715 27.5714C23.5465 27.5714 22.7143 26.7393 22.7143 25.7143C22.7143 24.6893 23.5465 23.8571 24.5715 23.8571C25.5965 23.8571 26.4286 24.6893 26.4286 25.7143C26.4286 26.7393 25.5965 27.5714 24.5715 27.5714Z" fill="white"/>
</svg>
